<svg xmlns="http://www.w3.org/2000/svg" version="1.1" xmlns:xlink="http://www.w3.org/1999/xlink" xmlns:svgjs="http://svgjs.dev/svgjs" viewBox="0 0 9.888161031488181 1.74963698431997"><g transform="matrix(1,0,0,1,1.9133592021731642,0.34606849215998503)"><rect width="9.888161031488181" height="9.888161031488181" x="-1.9133592021731638" y="-4.415330515744091" fill="#ffffff"></rect><g><path d=" M 0.23925000000000002 1.0252499999999998 Q 0.135 0.9854999999999998 0.0765 0.9224999999999999 L 0.111 0.8654999999999999 Q 0.1665 0.9239999999999999 0.26025 0.9607499999999999 Q 0.354 0.9974999999999998 0.4575 0.9974999999999998 Q 0.6075 0.9974999999999998 0.684 0.9404999999999999 Q 0.7605000000000001 0.8834999999999998 0.7605000000000001 0.7919999999999998 Q 0.7605000000000001 0.7214999999999998 0.72 0.6794999999999999 Q 0.6795 0.6375 0.6195 0.6149999999999999 Q 0.5595 0.5924999999999998 0.4575 0.5684999999999999 Q 0.342 0.5399999999999999 0.27225 0.5129999999999999 Q 0.2025 0.4859999999999999 0.15375 0.42974999999999985 Q 0.105 0.37349999999999983 0.105 0.2789999999999999 Q 0.105 0.2024999999999999 0.1455 0.13874999999999982 Q 0.186 0.07499999999999984 0.26925 0.03749999999999987 Q 0.3525 -2.220446049250313e-16 0.47700000000000004 -2.220446049250313e-16 Q 0.5640000000000001 -2.220446049250313e-16 0.648 0.025499999999999856 Q 0.732 0.050999999999999934 0.7935 0.09449999999999992 L 0.765 0.15599999999999992 Q 0.7020000000000001 0.11249999999999982 0.62625 0.08999999999999986 Q 0.5505 0.0674999999999999 0.47700000000000004 0.0674999999999999 Q 0.3315 0.0674999999999999 0.2565 0.1259999999999999 Q 0.1815 0.1844999999999999 0.1815 0.27749999999999986 Q 0.1815 0.34799999999999986 0.222 0.3899999999999999 Q 0.2625 0.43199999999999983 0.3225 0.4544999999999999 Q 0.3825 0.47699999999999987 0.486 0.5024999999999998 Q 0.6015 0.5309999999999999 0.6705 0.5579999999999998 Q 0.7395 0.5849999999999999 0.78825 0.6397499999999998 Q 0.837 0.6944999999999999 0.837 0.7874999999999999 Q 0.837 0.8639999999999999 0.7957500000000001 0.9269999999999998 Q 0.7545000000000001 0.9899999999999999 0.669 1.0274999999999999 Q 0.5835 1.065 0.459 1.065 Q 0.3435 1.065 0.23925000000000002 1.0252499999999998 M 1.74601318359375 0.7619999999999999 L 1.13701318359375 0.7619999999999999 L 1.00351318359375 1.0574999999999999 L 0.92101318359375 1.0574999999999999 L 1.40401318359375 0.00749999999999984 L 1.4805131835937502 0.00749999999999984 L 1.96351318359375 1.0574999999999999 L 1.88101318359375 1.0574999999999999 L 1.74601318359375 0.7619999999999999 M 1.71751318359375 0.6974999999999999 L 1.44151318359375 0.09149999999999991 L 1.16701318359375 0.6974999999999999 L 1.71751318359375 0.6974999999999999 M 2.154038818359375 0.00749999999999984 L 2.230538818359375 0.00749999999999984 L 2.230538818359375 1.0574999999999999 L 2.154038818359375 1.0574999999999999 L 2.154038818359375 0.00749999999999984 M 3.294041748046875 0.5399999999999999 L 3.058541748046875 0.7814999999999999 L 3.058541748046875 1.0574999999999999 L 2.982041748046875 1.0574999999999999 L 2.982041748046875 0.00749999999999984 L 3.058541748046875 0.00749999999999984 L 3.058541748046875 0.6824999999999999 L 3.714041748046875 0.00749999999999984 L 3.807041748046875 0.00749999999999984 L 3.3450417480468753 0.4844999999999998 L 3.8385417480468753 1.0574999999999999 L 3.745541748046875 1.0574999999999999 L 3.294041748046875 0.5399999999999999 M 4.036546142578125 0.00749999999999984 L 4.113046142578125 0.00749999999999984 L 4.113046142578125 1.0574999999999999 L 4.036546142578125 1.0574999999999999 L 4.036546142578125 0.00749999999999984 M 5.2080205078125 1.0574999999999999 L 4.9575205078125 0.7064999999999999 Q 4.9020205078125 0.7139999999999999 4.8555205078125 0.7139999999999999 L 4.5555205078125 0.7139999999999999 L 4.5555205078125 1.0574999999999999 L 4.4790205078125 1.0574999999999999 L 4.4790205078125 0.00749999999999984 L 4.8555205078125 0.00749999999999984 Q 5.0535205078125 0.00749999999999984 5.1660205078125 0.10124999999999984 Q 5.2785205078125 0.19499999999999984 5.2785205078125 0.3614999999999998 Q 5.2785205078125 0.4859999999999999 5.2147705078125 0.5707499999999999 Q 5.1510205078125 0.6554999999999999 5.0325205078125 0.69 L 5.2950205078125 1.0574999999999999 L 5.2080205078125 1.0574999999999999 M 4.8555205078125 0.6464999999999999 Q 5.0235205078125 0.6464999999999999 5.1120205078125 0.5722499999999999 Q 5.2005205078125 0.4979999999999999 5.2005205078125 0.3614999999999998 Q 5.2005205078125 0.22499999999999987 5.1120205078125 0.15074999999999983 Q 5.0235205078125 0.0764999999999999 4.8555205078125 0.0764999999999999 L 4.5555205078125 0.0764999999999999 L 4.5555205078125 0.6464999999999999 L 4.8555205078125 0.6464999999999999 M 6.2084765625 0.7619999999999999 L 5.5994765625 0.7619999999999999 L 5.4659765625 1.0574999999999999 L 5.3834765625 1.0574999999999999 L 5.8664765625 0.00749999999999984 L 5.9429765625 0.00749999999999984 L 6.4259765625 1.0574999999999999 L 6.3434765625 1.0574999999999999 L 6.2084765625 0.7619999999999999 M 6.1799765625 0.6974999999999999 L 5.9039765625000005 0.09149999999999991 L 5.6294765625 0.6974999999999999 L 6.1799765625 0.6974999999999999 M 7.471502197265625 0.00749999999999984 L 7.471502197265625 1.0574999999999999 L 7.408502197265625 1.0574999999999999 L 6.693002197265625 0.14549999999999985 L 6.693002197265625 1.0574999999999999 L 6.616502197265625 1.0574999999999999 L 6.616502197265625 0.00749999999999984 L 6.681002197265625 0.00749999999999984 L 7.395002197265625 0.9194999999999999 L 7.395002197265625 0.00749999999999984 L 7.471502197265625 0.00749999999999984" fill="#382d5e" fill-rule="nonzero"></path></g><g></g><g clip-path="url(#SvgjsClipPath1002)"><g clip-path="url(#SvgjsClipPath1000977b656c-f7eb-4600-a9bb-81878fb02bba)"><path d=" M -1.1797837320229316 0.33100463260949314 L -0.7319512791119289 0.33100463260949314 L -0.5701491082488612 0.6111792170452407 L -0.5506557990925025 0.5774062242381084 C -0.5047967016468256 0.49706737846419835 -0.5050509508678149 0.3984186807202424 -0.5513235540833623 0.31831728778308804 C -0.5975958403641519 0.23809631006836213 -0.6830544583388303 0.18855281362602963 -0.7756635481292166 0.1882591618702979 L -1.0973416735355568 0.1882591618702979 Z" fill="#c84449" transform="matrix(1,0,0,1,0,0)" fill-rule="evenodd"></path></g><g clip-path="url(#SvgjsClipPath1000977b656c-f7eb-4600-a9bb-81878fb02bba)"><path d=" M -1.0633375347700496 0.12934262536872984 L -0.6155050818590466 0.12934262536872984 L -0.4537029109959789 0.4095172098044774 L -0.43420960183961665 0.3757185341130809 C -0.3883347544938145 0.29538384608936946 -0.3885890253556008 0.19672675171574008 -0.43487735683048 0.11662959765806064 C -0.4811496431112696 0.036408619943335094 -0.566608261085948 -0.013134876498996941 -0.6592173508763377 -0.013428528254729117 L -0.9809211591669416 -0.013428528254729117 Z" fill="#382d5e" transform="matrix(1,0,0,1,0,0)" fill-rule="evenodd"></path></g><g clip-path="url(#SvgjsClipPath1000977b656c-f7eb-4600-a9bb-81878fb02bba)"><path d=" M -1.0001833223649237 0.6422041412361273 L -1.2241123902625586 0.25439258885004373 L -1.0623102193994942 -0.025781995585703432 L -1.1013225205964758 -0.025781995585703432 C -1.193823403065394 -0.02533670500474917 -1.2791272501683792 0.02420465569956324 -1.3253543200311655 0.10432749609561415 C -1.3717260563050677 0.18452937765138372 -1.3719119543147382 0.2833488459506491 -1.3258422948321793 0.3637246271618026 L -1.1649903906868793 0.6423068727731832 Z" fill="#c84449" transform="matrix(1,0,0,1,0,0)" fill-rule="evenodd"></path></g><g clip-path="url(#SvgjsClipPath1000977b656c-f7eb-4600-a9bb-81878fb02bba)"><path d=" M -1.2330243511021606 0.6422041412361273 L -1.4569277361155286 0.25439258885004373 L -1.295125565252461 -0.025781995585703432 L -1.3340608177966513 -0.025781995585703432 C -1.4265602757726104 -0.0253314663173223 -1.5118617031311443 0.02420848908773733 -1.558092617231341 0.10432749609561415 C -1.6044643535052432 0.18452937765138372 -1.6046502515149137 0.2833488459506491 -1.5585805920323548 0.3637246271618026 L -1.3977286878870547 0.6423068727731832 Z" fill="#382d5e" transform="matrix(1,0,0,1,0,0)" fill-rule="evenodd"></path></g><g clip-path="url(#SvgjsClipPath1000977b656c-f7eb-4600-a9bb-81878fb02bba)"><path d=" M -0.820403132517073 0.3310303154937573 L -1.044332200414708 0.7188418678798408 L -1.3679365421408431 0.7188418678798408 L -1.3484175501002207 0.7526405435712373 C -1.3017756274535996 0.8325183402247914 -1.2162162636907277 0.8816105800338673 -1.1237179956746641 0.881568622576412 C -1.031106431160607 0.8816081669810911 -0.9454656894236643 0.8323799041960452 -0.8988900268277926 0.7523323489600698 L -0.7380638055667561 0.4737501033486892 Z" fill="#c84449" transform="matrix(1,0,0,1,0,0)" fill-rule="evenodd"></path></g><g clip-path="url(#SvgjsClipPath1000977b656c-f7eb-4600-a9bb-81878fb02bba)"><path d=" M -0.7040083010327182 0.5327180056187849 L -0.9279373689303531 0.9205295580048685 L -1.2515417106564883 0.9205295580048685 L -1.2320227186158659 0.954328233696265 C -1.1853834493354887 1.0342120538450996 -1.0998253002513547 1.0833133758877835 -1.0073231641903129 1.0832819955857036 C -0.9147126844163087 1.0833176014438766 -0.829077748758364 1.034077268853173 -0.7825208782277016 0.9540200390850972 L -0.6216689740824013 0.6754377934737165 Z" fill="#382d5e" transform="matrix(1,0,0,1,0,0)" fill-rule="evenodd"></path></g></g></g><defs><clipPath id="SvgjsClipPath1002"><path d=" M -1.5930983884831464 -0.025807678469967565 h 1.1930983884831465 v 1.109115356939935 h -1.1930983884831465 Z"></path></clipPath><clipPath id="SvgjsClipPath1000977b656c-f7eb-4600-a9bb-81878fb02bba"><path d=" M -1.5930983884831464 -0.025807678469967565 L -0.3999999999999999 -0.025807678469967565 L -0.3999999999999999 1.0833076784699673 L -1.5930983884831464 1.0833076784699673 Z"></path></clipPath></defs></svg>